<mxfile host="app.diagrams.net" modified="2023-11-24T18:01:05.454Z" agent="Mozilla/5.0 (X11; Linux x86_64; rv:109.0) Gecko/20100101 Firefox/114.0" etag="YdWgxH09WeV3SRsa5wC5" version="22.1.3" type="device">
  <diagram name="PÃ¡gina-1" id="OVfuz1kLudmK8diLFgPM">
    <mxGraphModel dx="1434" dy="789" grid="1" gridSize="10" guides="1" tooltips="1" connect="1" arrows="1" fold="1" page="1" pageScale="1" pageWidth="1169" pageHeight="827" math="0" shadow="0">
      <root>
        <mxCell id="0" />
        <mxCell id="1" parent="0" />
        <mxCell id="I2okXCdO8YwHONZ4qRBb-3" style="edgeStyle=orthogonalEdgeStyle;rounded=0;orthogonalLoop=1;jettySize=auto;html=1;exitX=0.5;exitY=0;exitDx=0;exitDy=0;entryX=0.5;entryY=0;entryDx=0;entryDy=0;" edge="1" parent="1" source="I2okXCdO8YwHONZ4qRBb-1" target="I2okXCdO8YwHONZ4qRBb-2">
          <mxGeometry relative="1" as="geometry" />
        </mxCell>
        <mxCell id="I2okXCdO8YwHONZ4qRBb-5" style="edgeStyle=orthogonalEdgeStyle;rounded=0;orthogonalLoop=1;jettySize=auto;html=1;exitX=0;exitY=1;exitDx=0;exitDy=0;entryX=0.75;entryY=1;entryDx=0;entryDy=0;" edge="1" parent="1" source="I2okXCdO8YwHONZ4qRBb-1" target="I2okXCdO8YwHONZ4qRBb-2">
          <mxGeometry relative="1" as="geometry">
            <Array as="points">
              <mxPoint x="310" y="207" />
            </Array>
          </mxGeometry>
        </mxCell>
        <mxCell id="I2okXCdO8YwHONZ4qRBb-6" style="edgeStyle=orthogonalEdgeStyle;rounded=0;orthogonalLoop=1;jettySize=auto;html=1;exitX=0.5;exitY=1;exitDx=0;exitDy=0;entryX=0.25;entryY=1;entryDx=0;entryDy=0;" edge="1" parent="1" source="I2okXCdO8YwHONZ4qRBb-1" target="I2okXCdO8YwHONZ4qRBb-2">
          <mxGeometry relative="1" as="geometry">
            <Array as="points">
              <mxPoint x="820" y="300" />
              <mxPoint x="250" y="300" />
            </Array>
          </mxGeometry>
        </mxCell>
        <mxCell id="I2okXCdO8YwHONZ4qRBb-1" value="&lt;div&gt;GESTION DE &lt;br&gt;&lt;/div&gt;&lt;div&gt;PROGRAMA&lt;/div&gt;" style="ellipse;whiteSpace=wrap;html=1;aspect=fixed;" vertex="1" parent="1">
          <mxGeometry x="740" y="70" width="160" height="160" as="geometry" />
        </mxCell>
        <mxCell id="I2okXCdO8YwHONZ4qRBb-4" style="edgeStyle=orthogonalEdgeStyle;rounded=0;orthogonalLoop=1;jettySize=auto;html=1;exitX=1;exitY=0.5;exitDx=0;exitDy=0;entryX=0;entryY=0.5;entryDx=0;entryDy=0;" edge="1" parent="1" source="I2okXCdO8YwHONZ4qRBb-2" target="I2okXCdO8YwHONZ4qRBb-1">
          <mxGeometry relative="1" as="geometry" />
        </mxCell>
        <mxCell id="I2okXCdO8YwHONZ4qRBb-2" value="USUARIO" style="rounded=0;whiteSpace=wrap;html=1;" vertex="1" parent="1">
          <mxGeometry x="220" y="120" width="120" height="60" as="geometry" />
        </mxCell>
        <mxCell id="I2okXCdO8YwHONZ4qRBb-7" value="mensaje no me sirve" style="text;html=1;strokeColor=none;fillColor=none;align=center;verticalAlign=middle;whiteSpace=wrap;rounded=0;" vertex="1" parent="1">
          <mxGeometry x="460" y="20" width="170" height="30" as="geometry" />
        </mxCell>
        <mxCell id="I2okXCdO8YwHONZ4qRBb-8" value="numero" style="text;html=1;strokeColor=none;fillColor=none;align=center;verticalAlign=middle;whiteSpace=wrap;rounded=0;" vertex="1" parent="1">
          <mxGeometry x="515" y="110" width="60" height="30" as="geometry" />
        </mxCell>
        <mxCell id="I2okXCdO8YwHONZ4qRBb-9" value="mensaje existente" style="text;html=1;strokeColor=none;fillColor=none;align=center;verticalAlign=middle;whiteSpace=wrap;rounded=0;" vertex="1" parent="1">
          <mxGeometry x="460" y="210" width="170" height="30" as="geometry" />
        </mxCell>
        <mxCell id="I2okXCdO8YwHONZ4qRBb-10" value="numero encontrado" style="text;html=1;strokeColor=none;fillColor=none;align=center;verticalAlign=middle;whiteSpace=wrap;rounded=0;" vertex="1" parent="1">
          <mxGeometry x="440" y="310" width="170" height="30" as="geometry" />
        </mxCell>
        <mxCell id="I2okXCdO8YwHONZ4qRBb-11" value="&lt;font style=&quot;font-size: 19px;&quot;&gt;0&lt;/font&gt;" style="text;html=1;strokeColor=none;fillColor=none;align=center;verticalAlign=middle;whiteSpace=wrap;rounded=0;" vertex="1" parent="1">
          <mxGeometry x="790" y="80" width="60" height="30" as="geometry" />
        </mxCell>
        <mxCell id="I2okXCdO8YwHONZ4qRBb-19" style="edgeStyle=orthogonalEdgeStyle;rounded=0;orthogonalLoop=1;jettySize=auto;html=1;exitX=0.5;exitY=0;exitDx=0;exitDy=0;entryX=0.5;entryY=0;entryDx=0;entryDy=0;" edge="1" parent="1" source="I2okXCdO8YwHONZ4qRBb-12" target="I2okXCdO8YwHONZ4qRBb-15">
          <mxGeometry relative="1" as="geometry" />
        </mxCell>
        <mxCell id="I2okXCdO8YwHONZ4qRBb-12" value="COMPROBAR PAR" style="ellipse;whiteSpace=wrap;html=1;aspect=fixed;" vertex="1" parent="1">
          <mxGeometry x="440" y="390" width="160" height="160" as="geometry" />
        </mxCell>
        <mxCell id="I2okXCdO8YwHONZ4qRBb-18" style="edgeStyle=orthogonalEdgeStyle;rounded=0;orthogonalLoop=1;jettySize=auto;html=1;exitX=0.5;exitY=1;exitDx=0;exitDy=0;entryX=0.5;entryY=0;entryDx=0;entryDy=0;" edge="1" parent="1" source="I2okXCdO8YwHONZ4qRBb-13" target="I2okXCdO8YwHONZ4qRBb-14">
          <mxGeometry relative="1" as="geometry" />
        </mxCell>
        <mxCell id="I2okXCdO8YwHONZ4qRBb-13" value="MULTIPLICAR POR 10" style="ellipse;whiteSpace=wrap;html=1;aspect=fixed;" vertex="1" parent="1">
          <mxGeometry x="760" y="410" width="120" height="120" as="geometry" />
        </mxCell>
        <mxCell id="I2okXCdO8YwHONZ4qRBb-22" style="edgeStyle=orthogonalEdgeStyle;rounded=0;orthogonalLoop=1;jettySize=auto;html=1;exitX=0;exitY=0;exitDx=0;exitDy=0;entryX=0.75;entryY=1;entryDx=0;entryDy=0;" edge="1" parent="1" source="I2okXCdO8YwHONZ4qRBb-14" target="I2okXCdO8YwHONZ4qRBb-15">
          <mxGeometry relative="1" as="geometry" />
        </mxCell>
        <mxCell id="I2okXCdO8YwHONZ4qRBb-23" style="edgeStyle=orthogonalEdgeStyle;rounded=0;orthogonalLoop=1;jettySize=auto;html=1;exitX=0;exitY=0.5;exitDx=0;exitDy=0;entryX=0.25;entryY=1;entryDx=0;entryDy=0;" edge="1" parent="1" source="I2okXCdO8YwHONZ4qRBb-14" target="I2okXCdO8YwHONZ4qRBb-15">
          <mxGeometry relative="1" as="geometry" />
        </mxCell>
        <mxCell id="I2okXCdO8YwHONZ4qRBb-26" style="edgeStyle=orthogonalEdgeStyle;rounded=0;orthogonalLoop=1;jettySize=auto;html=1;exitX=1;exitY=1;exitDx=0;exitDy=0;entryX=0.5;entryY=1;entryDx=0;entryDy=0;" edge="1" parent="1" source="I2okXCdO8YwHONZ4qRBb-14" target="I2okXCdO8YwHONZ4qRBb-24">
          <mxGeometry relative="1" as="geometry">
            <Array as="points">
              <mxPoint x="862" y="740" />
              <mxPoint x="1060" y="740" />
            </Array>
          </mxGeometry>
        </mxCell>
        <mxCell id="I2okXCdO8YwHONZ4qRBb-14" value="COMPROBAR EXISTENTE" style="ellipse;whiteSpace=wrap;html=1;aspect=fixed;" vertex="1" parent="1">
          <mxGeometry x="760" y="600" width="120" height="120" as="geometry" />
        </mxCell>
        <mxCell id="I2okXCdO8YwHONZ4qRBb-16" style="edgeStyle=orthogonalEdgeStyle;rounded=0;orthogonalLoop=1;jettySize=auto;html=1;exitX=1;exitY=0.5;exitDx=0;exitDy=0;entryX=0;entryY=0.5;entryDx=0;entryDy=0;" edge="1" parent="1" source="I2okXCdO8YwHONZ4qRBb-15" target="I2okXCdO8YwHONZ4qRBb-12">
          <mxGeometry relative="1" as="geometry" />
        </mxCell>
        <mxCell id="I2okXCdO8YwHONZ4qRBb-15" value="USUARIO" style="rounded=0;whiteSpace=wrap;html=1;" vertex="1" parent="1">
          <mxGeometry x="160" y="440" width="120" height="60" as="geometry" />
        </mxCell>
        <mxCell id="I2okXCdO8YwHONZ4qRBb-17" style="edgeStyle=orthogonalEdgeStyle;rounded=0;orthogonalLoop=1;jettySize=auto;html=1;exitX=1;exitY=0.5;exitDx=0;exitDy=0;entryX=0;entryY=0.5;entryDx=0;entryDy=0;" edge="1" parent="1" source="I2okXCdO8YwHONZ4qRBb-12" target="I2okXCdO8YwHONZ4qRBb-13">
          <mxGeometry relative="1" as="geometry" />
        </mxCell>
        <mxCell id="I2okXCdO8YwHONZ4qRBb-25" style="edgeStyle=orthogonalEdgeStyle;rounded=0;orthogonalLoop=1;jettySize=auto;html=1;exitX=0.5;exitY=0;exitDx=0;exitDy=0;entryX=1;entryY=0;entryDx=0;entryDy=0;" edge="1" parent="1" source="I2okXCdO8YwHONZ4qRBb-24" target="I2okXCdO8YwHONZ4qRBb-14">
          <mxGeometry relative="1" as="geometry" />
        </mxCell>
        <mxCell id="I2okXCdO8YwHONZ4qRBb-24" value="NUMEROS BONITOS" style="shape=partialRectangle;whiteSpace=wrap;html=1;left=0;right=0;fillColor=none;" vertex="1" parent="1">
          <mxGeometry x="1000" y="660" width="120" height="40" as="geometry" />
        </mxCell>
        <mxCell id="I2okXCdO8YwHONZ4qRBb-27" value="mensaje no me sirve" style="text;html=1;strokeColor=none;fillColor=none;align=center;verticalAlign=middle;whiteSpace=wrap;rounded=0;" vertex="1" parent="1">
          <mxGeometry x="290" y="340" width="170" height="30" as="geometry" />
        </mxCell>
        <mxCell id="I2okXCdO8YwHONZ4qRBb-28" value="numero" style="text;html=1;strokeColor=none;fillColor=none;align=center;verticalAlign=middle;whiteSpace=wrap;rounded=0;" vertex="1" parent="1">
          <mxGeometry x="330" y="440" width="60" height="30" as="geometry" />
        </mxCell>
        <mxCell id="I2okXCdO8YwHONZ4qRBb-29" value="mensaje existente" style="text;html=1;strokeColor=none;fillColor=none;align=center;verticalAlign=middle;whiteSpace=wrap;rounded=0;" vertex="1" parent="1">
          <mxGeometry x="435" y="590" width="170" height="30" as="geometry" />
        </mxCell>
        <mxCell id="I2okXCdO8YwHONZ4qRBb-30" value="numero encontrado" style="text;html=1;strokeColor=none;fillColor=none;align=center;verticalAlign=middle;whiteSpace=wrap;rounded=0;" vertex="1" parent="1">
          <mxGeometry x="380" y="660" width="170" height="30" as="geometry" />
        </mxCell>
        <mxCell id="I2okXCdO8YwHONZ4qRBb-31" value="1" style="text;html=1;strokeColor=none;fillColor=none;align=center;verticalAlign=middle;whiteSpace=wrap;rounded=0;fontSize=18;" vertex="1" parent="1">
          <mxGeometry x="490" y="399" width="60" height="30" as="geometry" />
        </mxCell>
        <mxCell id="I2okXCdO8YwHONZ4qRBb-32" value="numero" style="text;html=1;strokeColor=none;fillColor=none;align=center;verticalAlign=middle;whiteSpace=wrap;rounded=0;" vertex="1" parent="1">
          <mxGeometry x="660" y="430" width="60" height="30" as="geometry" />
        </mxCell>
        <mxCell id="I2okXCdO8YwHONZ4qRBb-33" value="numero multiplicado" style="text;html=1;strokeColor=none;fillColor=none;align=center;verticalAlign=middle;whiteSpace=wrap;rounded=0;" vertex="1" parent="1">
          <mxGeometry x="830" y="550" width="60" height="30" as="geometry" />
        </mxCell>
      </root>
    </mxGraphModel>
  </diagram>
</mxfile>
